<svg width="14" height="14" viewBox="0 0 14 14" fill="none" xmlns="http://www.w3.org/2000/svg">
<path fill-rule="evenodd" clip-rule="evenodd" d="M6.25 1.5C3.62665 1.5 1.5 3.62665 1.5 6.25C1.5 8.87335 3.62665 11 6.25 11C8.87335 11 11 8.87335 11 6.25C11 3.62665 8.87335 1.5 6.25 1.5ZM0.5 6.25C0.5 3.07436 3.07436 0.5 6.25 0.5C9.42564 0.5 12 3.07436 12 6.25C12 9.42564 9.42564 12 6.25 12C3.07436 12 0.5 9.42564 0.5 6.25Z" fill="#434345"/>
<path fill-rule="evenodd" clip-rule="evenodd" d="M9.60895 9.60895C9.80421 9.41368 10.1208 9.41368 10.3161 9.60895L13.3536 12.6464C13.5488 12.8417 13.5488 13.1583 13.3536 13.3536C13.1583 13.5488 12.8417 13.5488 12.6464 13.3536L9.60895 10.3161C9.41368 10.1208 9.41368 9.80421 9.60895 9.60895Z" fill="#434345"/>
</svg>
